# xmcd CD database file
#
# Track frame offsets:
#	150
#	19677
#	36687
#	53150
#	71877
#	90982
#	108227
#	129200
#	148177
#	168785
#	187707
#	205797
#	226987
#	248057
#	266340
#
# Disc length: 3768 seconds
#
# Revision: 0
# Processed by: cddbd v1.5.1PL0 Copyright (c) Steve Scherf et al.
# Submitted via: CDex 1.51
#
DISCID=c30eb60f
DTITLE=村田英雄 - 村田英雄全曲集
DYEAR=1900
DGENRE=Japanese Enka
TTITLE0=男吉良常
TTITLE1=男の一生
TTITLE2=涙の酒
TTITLE3=ふるさと泣かせ
TTITLE4=法印遊侠伝
TTITLE5=花と竜
TTITLE6=おとこ酒
TTITLE7=夫婦雨
TTITLE8=浅草しぐれ
TTITLE9=祝い船
TTITLE10=夫婦酒
TTITLE11=なみだ坂
TTITLE12=道頓堀人情
TTITLE13=人生峠
TTITLE14=人生劇場
EXTD=
EXTT0=
EXTT1=
EXTT2=
EXTT3=
EXTT4=
EXTT5=
EXTT6=
EXTT7=
EXTT8=
EXTT9=
EXTT10=
EXTT11=
EXTT12=
EXTT13=
EXTT14=
PLAYORDER=
